<?xml version="1.0" encoding="utf-8"?>
<!-- Generator: Adobe Illustrator 16.0.0, SVG Export Plug-In . SVG Version: 6.00 Build 0)  -->
<!DOCTYPE svg PUBLIC "-//W3C//DTD SVG 1.1//EN" "http://www.w3.org/Graphics/SVG/1.1/DTD/svg11.dtd">
<svg version="1.1" id="Calque_1" xmlns="http://www.w3.org/2000/svg" xmlns:xlink="http://www.w3.org/1999/xlink" x="0px" y="0px"
	 width="225px" height="75px" viewBox="0 0 225 75" enable-background="new 0 0 225 75" xml:space="preserve">
<g>
	<polygon fill="#FFFFFF" points="10.037,29.173 10.242,29.136 30.42,63.02 40.457,63.02 40.457,12.784 30.42,12.784 30.42,46.598 
		30.213,46.631 10.037,12.784 0,12.784 0,63.02 10.037,63.02 	"/>
	<polygon fill="#FFFFFF" points="81.704,20.546 81.704,12.784 49.668,12.784 49.668,63.02 81.771,63.02 81.771,55.291 
		59.705,55.291 59.705,40.937 78.267,40.937 78.267,33.173 59.705,33.173 59.705,20.546 	"/>
	<path fill="#FFFFFF" d="M143.229,12.784v32.414c0,5.577,1.777,9.943,5.34,13.096c3.56,3.149,8.2,4.727,13.909,4.727
		c5.734,0,10.398-1.577,13.994-4.727c3.594-3.151,5.39-7.519,5.39-13.096V12.784h-9.688v32.414c0,3.311-0.871,5.84-2.616,7.586
		c-1.742,1.748-4.102,2.618-7.077,2.618c-2.936,0-5.259-0.87-6.98-2.618c-1.721-1.746-2.582-4.275-2.582-7.586V12.784H143.229z"/>
	<path fill="#FFFFFF" d="M213.309,53.961c-1.357,1.097-3.327,1.646-5.905,1.646c-2.868,0-5.139-0.683-6.816-2.049
		c-1.677-1.361-2.513-3.485-2.513-6.369h-9.362l-0.066,0.2c-0.111,5.188,1.694,9.09,5.411,11.705
		c3.713,2.616,8.162,3.925,13.347,3.925c5.292,0,9.549-1.211,12.768-3.625c3.22-2.415,4.828-5.711,4.828-9.891
		c0-4.002-1.39-7.226-4.168-9.671c-2.778-2.454-6.814-4.435-12.108-5.956c-3.46-1.186-5.898-2.308-7.309-3.371
		c-1.411-1.061-2.117-2.418-2.117-4.072c0-1.811,0.651-3.297,1.951-4.46c1.301-1.162,3.145-1.745,5.524-1.745
		c2.626,0,4.662,0.653,6.119,1.964c1.46,1.306,2.183,3.179,2.183,5.615h9.36l0.069-0.203c0.109-4.426-1.462-8.002-4.713-10.729
		c-3.257-2.729-7.553-4.092-12.888-4.092c-5.028,0-9.16,1.268-12.403,3.805c-3.241,2.537-4.862,5.809-4.862,9.809
		c0,3.982,1.44,7.122,4.316,9.422c2.88,2.304,7.097,4.305,12.653,6.005c3.241,1.005,5.507,2.079,6.796,3.218
		c1.291,1.14,1.937,2.648,1.937,4.526C215.34,51.404,214.662,52.866,213.309,53.961z"/>
	<polygon fill="#FFFFFF" points="121.505,37.5 137.998,9.83 225,9.83 225,0 126.365,0 112.449,26.804 112.447,26.804 98.531,0 0,0 
		0,9.83 86.899,9.83 103.392,37.498 103.39,37.5 103.392,37.502 86.899,65.17 0,65.17 0,75 98.531,75 112.448,48.196 
		112.449,48.196 126.365,75 225,75 225,65.17 137.998,65.17 	"/>
</g>
</svg>
